<svg width="14" height="14" viewBox="0 0 14 14" fill="none" xmlns="http://www.w3.org/2000/svg">
<path d="M2.01666 10.8785L2.07456 10.6608L1.94983 10.4732L1.78541 10.2259C-0.0509514 7.3838 0.866227 3.53174 3.70682 1.75914C6.6338 -0.0155354 10.3987 0.834357 12.2454 3.68163C14.0134 6.61866 13.1632 10.3939 10.3242 12.2443C9.32775 12.8578 8.17481 13.1667 7.01834 13.1667C5.95778 13.1667 4.88265 12.8646 3.86906 12.321L3.63963 12.1677L3.45136 12.0418L3.23259 12.1003L1.57378 12.5439L2.01666 10.8785ZM9.59458 11.25H9.63021L9.66548 11.2449C10.4276 11.1358 10.9545 10.6909 11.3406 10.1101C11.6158 9.69622 11.5981 9.1921 11.4818 8.84225L11.4446 8.73038L11.3614 8.64691C11.2708 8.5561 11.1604 8.4876 11.0793 8.44115C10.9944 8.3925 10.9008 8.34555 10.8219 8.30602L10.8159 8.30301L9.48626 7.63634C9.39233 7.58924 9.20375 7.49932 8.97198 7.53806C8.74657 7.57573 8.58965 7.71625 8.4926 7.81357L8.49116 7.81501C8.40824 7.89816 8.25755 8.04927 8.11619 8.20192C8.04526 8.27852 7.97267 8.3598 7.91031 8.43606C7.8955 8.45417 7.87935 8.47428 7.86272 8.49587C7.38504 8.27793 6.96099 7.99307 6.52537 7.63084C6.18891 7.29163 5.85317 6.89526 5.56886 6.49381C5.605 6.45452 5.63479 6.41546 5.65713 6.38465C5.68397 6.34764 5.70959 6.3091 5.72895 6.27997L5.73108 6.27677C5.75304 6.24374 5.76807 6.22127 5.78178 6.20236C5.79038 6.19051 5.79497 6.18499 5.79598 6.18375C5.92252 6.05554 6.09068 5.78766 6.05335 5.46843C6.07561 5.3927 6.08479 5.31776 6.08479 5.24995C6.08479 5.1333 6.05762 4.99559 5.98351 4.86903C5.98234 4.86531 5.98117 4.86168 5.98002 4.85812C5.9651 4.81198 5.94536 4.75675 5.92371 4.69839C5.87996 4.5805 5.82099 4.43006 5.75834 4.27302C5.69541 4.11526 5.62738 3.94735 5.56508 3.79375L5.54639 3.74769C5.49667 3.62516 5.45169 3.51429 5.41639 3.42613C5.35446 3.20171 5.23717 2.98638 5.01272 2.85777C4.81909 2.74682 4.6123 2.74904 4.53885 2.74983C4.53361 2.74988 4.52904 2.74993 4.52521 2.74993H4.10969C3.76359 2.74993 3.47757 2.92571 3.25702 3.14687C2.74495 3.66036 2.44623 4.372 2.44623 5.16661V5.19423L2.44927 5.22168C2.53871 6.02881 2.80843 6.87374 3.37721 7.55124C4.25106 8.85699 5.47524 9.99626 6.97117 10.7022L6.98461 10.7085L6.99841 10.714C7.85356 11.057 8.41773 11.198 8.82961 11.2465C9.13819 11.2829 9.41552 11.2625 9.53694 11.2535C9.56498 11.2514 9.5847 11.25 9.59458 11.25ZM8.00587 8.55962C8.00589 8.5597 8.00474 8.55939 8.00238 8.55847C8.00468 8.55908 8.00585 8.55954 8.00587 8.55962Z" fill="white" stroke="white"/>
</svg>
